HIERARCHY
ROOT Hips
{
 OFFSET 0.000000 0.000000 0.000000
 CHANNELS 6 Xposition Yposition Zposition Yrotation Xrotation Zrotation
 JOINT Chest
 {
  OFFSET 0.000000 9.585900 0.002600
  CHANNELS 3 Yrotation Xrotation Zrotation
  JOINT Chest2
  {
   OFFSET 0.000000 9.601200 -0.005300
   CHANNELS 3 Yrotation Xrotation Zrotation
   JOINT Chest3
   {
    OFFSET 0.000000 9.561800 0.000000
    CHANNELS 3 Yrotation Xrotation Zrotation
    JOINT Chest4
    {
     OFFSET 0.000000 9.552100 0.000000
     CHANNELS 3 Yrotation Xrotation Zrotation
     JOINT Neck
     {
      OFFSET 0.000000 14.453000 0.000000
      CHANNELS 3 Yrotation Xrotation Zrotation
      JOINT Head
      {
       OFFSET 0.000000 8.936500 -0.011300
       CHANNELS 3 Yrotation Xrotation Zrotation
       End Site
       {
        OFFSET 0.000000 17.073600 -0.006000
       }
      }
     }
     JOINT RightCollar
     {
      OFFSET -2.921100 9.558500 0.000000
      CHANNELS 3 Yrotation Xrotation Zrotation
      JOINT RightShoulder
      {
       OFFSET -13.519700 0.000000 0.000000
       CHANNELS 3 Yrotation Xrotation Zrotation
       JOINT RightElbow
       {
        OFFSET 0.000000 -29.696600 0.000000
        CHANNELS 3 Yrotation Xrotation Zrotation
        JOINT RightWrist
        {
         OFFSET 0.000000 -24.004700 0.000000
         CHANNELS 3 Yrotation Xrotation Zrotation
         End Site
         {
          OFFSET 0.000000 -17.728500 0.000000
         }
        }
       }
      }
     }
     JOINT LeftCollar
     {
      OFFSET 2.921100 9.558500 0.000000
      CHANNELS 3 Yrotation Xrotation Zrotation
      JOINT LeftShoulder
      {
       OFFSET 13.519700 0.000000 0.000000
       CHANNELS 3 Yrotation Xrotation Zrotation
       JOINT LeftElbow
       {
        OFFSET 0.000000 -29.696600 0.000000
        CHANNELS 3 Yrotation Xrotation Zrotation
        JOINT LeftWrist
        {
         OFFSET 0.000000 -24.004700 0.000000
         CHANNELS 3 Yrotation Xrotation Zrotation
         End Site
         {
          OFFSET 0.000000 -17.728500 0.000000
         }
        }
       }
      }
     }
    }
   }
  }
 }
 JOINT RightHip
 {
  OFFSET -7.771700 -0.012900 -0.001300
  CHANNELS 3 Yrotation Xrotation Zrotation
  JOINT RightKnee
  {
   OFFSET 0.000000 -40.869800 0.001200
   CHANNELS 3 Yrotation Xrotation Zrotation
   JOINT RightAnkle
   {
    OFFSET 0.000000 -39.717900 0.002100
    CHANNELS 3 Yrotation Xrotation Zrotation
    JOINT RightToe
    {
     OFFSET 0.000000 -4.965400 11.033500
     CHANNELS 3 Yrotation Xrotation Zrotation
     End Site
     {
      OFFSET 0.000000 -1.423100 5.872300
     }
    }
   }
  }
 }
 JOINT LeftHip
 {
  OFFSET 7.771700 -0.012900 -0.001300
  CHANNELS 3 Yrotation Xrotation Zrotation
  JOINT LeftKnee
  {
   OFFSET 0.000000 -40.869800 0.001200
   CHANNELS 3 Yrotation Xrotation Zrotation
   JOINT LeftAnkle
   {
    OFFSET 0.000000 -39.717900 0.002100
    CHANNELS 3 Yrotation Xrotation Zrotation
    JOINT LeftToe
    {
     OFFSET 0.000000 -4.965400 11.033500
     CHANNELS 3 Yrotation Xrotation Zrotation
     End Site
     {
      OFFSET 0.000000 -1.423100 5.872300
     }
    }
   }
  }
 }
}
MOTION
Frames: 8
Frame Time: 0.008333
-43.115033 57.903913 12.217842 177.220048 -51.032280 -3.527238 3.611663 22.654057 3.442032 1.817488 12.980558 1.732898 2.359865 16.229420 2.230768 1.813401 12.974517 1.747106 -0.959977 17.614988 0.760490 -2.022434 -3.096781 1.690116 1.299244 4.237969 0.917446 -2.210965 -15.060062 -9.807902 -65.521276 -60.139683 116.510236 4.720057 21.375044 -24.786562 -10.864369 1.490754 -0.272046 3.463317 -8.840168 13.469197 45.526844 -42.023882 -100.316181 13.710330 6.912872 19.843071 3.811014 -20.527589 -2.644590 -33.006243 72.791616 -36.597092 6.843546 -12.001293 11.676944 0.003497 0.048122 0.036785 -7.566286 -17.874618 5.850185 86.850156 81.032664 86.478749 1.297153 -21.579427 -18.916038 -0.021481 0.027448 -0.009432
-43.111226 57.905148 12.221686 177.224869 -51.043101 -3.533951 3.601873 22.647602 3.452394 1.814393 12.986805 1.732828 2.355930 16.233194 2.233210 1.809663 12.976735 1.749396 -0.959383 17.628460 0.764679 -2.020996 -3.069111 1.696489 1.283214 4.225204 0.917640 -2.211984 -15.064318 -9.799962 -65.465082 -60.149967 116.478275 4.720786 21.367896 -24.781597 -10.870366 1.481531 -0.260766 3.468286 -8.831443 13.450654 45.542459 -42.037085 -100.327123 13.675584 6.918155 19.816197 3.813077 -20.511373 -2.641436 -32.964349 72.799378 -36.542776 6.827624 -12.048101 11.655382 -0.003737 0.077673 0.042921 -7.568914 -17.864557 5.851719 86.862864 81.035557 86.495263 1.303670 -21.581095 -18.919720 -0.025612 0.027594 -0.010520
-43.106986 57.908038 12.223504 177.230980 -51.067230 -3.539768 3.596340 22.665021 3.457201 1.809082 12.981868 1.737522 2.343346 16.226578 2.249819 1.814105 12.991531 1.731300 -0.960097 17.639491 0.773930 -2.024253 -3.012401 1.737768 1.259778 4.202922 0.944103 -2.179332 -15.040335 -9.840692 -65.572529 -60.132085 116.570509 4.716107 21.422816 -24.771038 -10.867452 1.482922 -0.271797 3.446467 -8.844913 13.474392 45.565611 -42.050758 -100.349687 13.699410 6.909957 19.819520 3.814398 -20.482845 -2.634737 -32.952260 72.802341 -36.523983 6.818768 -12.081394 11.644849 -0.004201 0.087679 0.041950 -7.569927 -17.841002 5.849802 86.860244 81.036508 86.495101 1.308619 -21.576967 -18.922016 -0.028111 0.023597 -0.011599
-43.100303 57.910680 12.224916 177.240884 -51.089202 -3.559278 3.593155 22.680349 3.473586 1.803275 12.974959 1.741630 2.339073 16.229117 2.252095 1.818382 13.001611 1.721524 -0.962156 17.645168 0.792784 -2.023868 -2.986858 1.745634 1.257498 4.201250 0.945495 -2.198071 -15.052258 -9.831245 -65.576376 -60.124867 116.588051 4.723301 21.425984 -24.759321 -10.870098 1.471422 -0.261148 3.442293 -8.841542 13.472413 45.576915 -42.057054 -100.356602 13.715799 6.908772 19.819915 3.812600 -20.454917 -2.603227 -32.978082 72.797873 -36.544077 6.799800 -12.120538 11.632816 0.010473 0.067634 0.033843 -7.578487 -17.821109 5.859213 86.913987 81.039503 86.553122 1.319104 -21.574996 -18.928546 -0.035932 0.019049 -0.012604
-43.094231 57.912717 12.225667 177.246326 -51.107524 -3.568208 3.585777 22.683708 3.480603 1.802243 12.979195 1.744924 2.334990 16.231317 2.253354 1.812770 13.001426 1.725157 -0.960486 17.657412 0.798198 -2.023142 -2.960993 1.752941 1.250558 4.195893 0.948749 -2.215755 -15.074683 -9.817711 -65.512945 -60.124914 116.552049 4.729264 21.424957 -24.752976 -10.870007 1.446710 -0.242318 3.447224 -8.818712 13.445963 45.588315 -42.065846 -100.356567 13.707542 6.917466 19.804833 3.811717 -20.434340 -2.586535 -32.928615 72.818466 -36.490544 6.748026 -12.177787 11.608944 0.012160 0.103043 0.048334 -7.575282 -17.804367 5.869492 86.938675 81.048584 86.582478 1.318030 -21.572374 -18.929247 -0.034502 0.012199 -0.011179
-43.091169 57.914790 12.224747 177.245858 -51.128569 -3.551535 3.573873 22.688095 3.471108 1.803692 12.993421 1.738286 2.333488 16.232096 2.253675 1.797148 12.979105 1.752766 -0.957639 17.683811 0.777796 -2.023377 -2.933466 1.765614 1.242679 4.196170 0.938989 -2.191671 -15.053215 -9.842535 -65.541598 -60.115978 116.581815 4.734473 21.404245 -24.749034 -10.857846 1.452569 -0.269858 3.446979 -8.810567 13.438458 45.593604 -42.070498 -100.355096 13.685866 6.924359 19.799635 3.821458 -20.409602 -2.591199 -32.751100 72.885048 -36.323726 6.639764 -12.290983 11.583485 0.001542 0.175219 0.069864 -7.565721 -17.785193 5.853110 86.970484 81.043432 86.612912 1.310494 -21.572930 -18.927239 -0.039300 0.007902 -0.012470
-43.085949 57.917300 12.222482 177.256137 -51.152674 -3.554154 3.560513 22.694640 3.470637 1.800110 12.995043 1.739915 2.329163 16.234435 2.255566 1.797370 12.980771 1.753912 -0.959048 17.698254 0.767248 -2.023772 -2.919138 1.774579 1.239121 4.202876 0.932499 -2.198784 -15.061865 -9.836706 -65.521432 -60.113351 116.576857 4.737642 21.385054 -24.744895 -10.855502 1.459209 -0.283625 3.444417 -8.811572 13.438420 45.598157 -42.075161 -100.354468 13.628609 6.924501 19.783750 3.818979 -20.386315 -2.588647 -32.723439 72.906328 -36.299488 6.619075 -12.326177 11.581233 0.015137 0.159151 0.059805 -7.565913 -17.761147 5.847266 86.974896 81.043870 86.617893 1.311309 -21.568605 -18.926851 -0.043278 0.004353 -0.014641
-43.082229 57.921735 12.217202 177.262984 -51.192670 -3.543561 3.550385 22.718313 3.462198 1.797615 12.996620 1.741994 2.326164 16.236243 2.258239 1.789709 12.979896 1.754683 -0.955196 17.715635 0.771922 -2.026238 -2.906324 1.769159 1.232572 4.200231 0.931845 -2.217733 -15.075424 -9.819355 -65.465436 -60.116814 116.554178 4.738553 21.380124 -24.746389 -10.856263 1.451606 -0.284309 3.443436 -8.824582 13.441111 45.596453 -42.057327 -100.340522 13.617835 6.930503 19.773242 3.822640 -20.344457 -2.595485 -32.632759 72.959826 -36.219985 6.566119 -12.411583 11.573919 0.014176 0.170861 0.057354 -7.556299 -17.720712 5.831797 86.969600 81.050776 86.613623 1.308949 -21.562290 -18.923636 -0.040762 -0.002046 -0.016080
